<svg xmlns="http://www.w3.org/2000/svg" viewBox="0 0 64 64">
  <rect width="64" height="64" rx="14" fill="#fbfaf8"/>
  <g fill="#171717" transform="translate(4 10)">
    <rect x="32" y="3" width="8" height="5" rx="1.7"/>
    <rect x="25" y="10" width="14" height="5" rx="1.7"/>
    <rect x="16" y="17" width="25" height="5" rx="1.7"/>
    <rect x="1" y="24" width="32" height="5" rx="1.7"/>
    <rect x="13" y="31" width="25" height="5" rx="1.7"/>
    <rect x="41" y="14" width="8" height="5" rx="1.7"/>
    <rect x="36" y="21" width="18" height="5" rx="1.7"/>
    <rect x="34" y="28" width="15" height="5" rx="1.7"/>
    <rect x="49" y="28" width="6" height="5" rx="1.7"/>
    <rect x="8" y="36" width="10" height="5" rx="1.7"/>
    <rect x="22" y="38" width="7" height="5" rx="1.7"/>
    <rect x="34" y="36" width="11" height="5" rx="1.7"/>
    <rect x="28" y="0" width="6" height="4" rx="1.5"/>
  </g>
</svg>
